<svg xmlns="http://www.w3.org/2000/svg" viewBox="0 0 361 96" width="361" height="96" role="img" aria-label="LagosBet">
  <title>LagosBet</title>
  <rect width="361" height="96" rx="14" fill="#15171C"/>
  <g fill="#FFC400" transform="translate(8,16) scale(0.615385)">
    <rect x="0" y="0" width="26" height="104" rx="6"/>
    <rect x="0" y="78" width="50" height="26" rx="6"/>
    <rect x="54" y="78" width="23" height="26" rx="6"/>
    <rect x="81" y="78" width="23" height="26" rx="6"/>
  </g>
  <g fill="#ffffff" transform="translate(85.767,71.000) scale(0.062246,-0.062246)">
    <path d="M68 0H431V131H205V739H68Z M1038.0 554.0H916.0V480.0C870.0 541.0 815.0 567.0 735.0 567.0C571.0 567.0 453.0 444.0 453.0 275.0C453.0 108.0 570.0 -13.0 732.0 -13.0C810.0 -13.0 863.0 11.0 916.0 72.0V0.0H1038.0ZM749.0 445.0C844.0 445.0 912.0 374.0 912.0 273.0C912.0 233.0 896.0 187.0 872.0 159.0C845.0 126.0 802.0 109.0 751.0 109.0C654.0 109.0 587.0 175.0 587.0 272.0C587.0 373.0 654.0 445.0 749.0 445.0Z M1564.0 554.0V484.0C1522.0 540.0 1463.0 567.0 1383.0 567.0C1226.0 567.0 1110.0 445.0 1110.0 281.0C1110.0 110.0 1224.0 -13.0 1382.0 -13.0C1460.0 -13.0 1512.0 12.0 1564.0 73.0C1559.0 -46.0 1508.0 -104.0 1409.0 -104.0C1347.0 -104.0 1309.0 -88.0 1270.0 -45.0H1119.0C1164.0 -156.0 1268.0 -221.0 1404.0 -221.0C1504.0 -221.0 1583.0 -186.0 1635.0 -120.0C1674.0 -69.0 1691.0 -1.0 1691.0 105.0V554.0ZM1398.0 445.0C1493.0 445.0 1558.0 377.0 1558.0 275.0C1558.0 175.0 1496.0 109.0 1400.0 109.0C1305.0 109.0 1244.0 174.0 1244.0 275.0C1244.0 377.0 1305.0 445.0 1398.0 445.0Z M2056.0 567.0C1895.0 567.0 1763.0 436.0 1763.0 277.0C1763.0 117.0 1895.0 -13.0 2057.0 -13.0C2218.0 -13.0 2352.0 117.0 2352.0 273.0C2352.0 438.0 2223.0 567.0 2056.0 567.0ZM2057.0 445.0C2146.0 445.0 2218.0 370.0 2218.0 277.0C2218.0 184.0 2146.0 109.0 2058.0 109.0C1968.0 109.0 1897.0 184.0 1897.0 279.0C1897.0 370.0 1969.0 445.0 2057.0 445.0Z M2380.0 176.0C2386.0 122.0 2395.0 93.0 2417.0 64.0C2453.0 16.0 2516.0 -13.0 2583.0 -13.0C2694.0 -13.0 2781.0 70.0 2781.0 176.0C2781.0 260.0 2739.0 304.0 2627.0 338.0C2572.0 355.0 2572.0 355.0 2559.0 361.0C2543.0 369.0 2533.0 382.0 2533.0 399.0C2533.0 425.0 2555.0 445.0 2584.0 445.0C2612.0 445.0 2630.0 430.0 2636.0 401.0H2766.0C2764.0 448.0 2753.0 476.0 2726.0 506.0C2691.0 545.0 2639.0 567.0 2584.0 567.0C2480.0 567.0 2400.0 493.0 2400.0 398.0C2400.0 317.0 2443.0 271.0 2554.0 234.0C2604.0 217.0 2609.0 215.0 2623.0 206.0C2639.0 196.0 2648.0 181.0 2648.0 163.0C2648.0 132.0 2623.0 109.0 2588.0 109.0C2549.0 109.0 2527.0 129.0 2514.0 176.0Z M2857.0 0.0H3054.0C3136.0 0.0 3196.0 13.0 3241.0 41.0C3302.0 78.0 3337.0 144.0 3337.0 220.0C3337.0 267.0 3324.0 311.0 3301.0 341.0C3280.0 369.0 3259.0 383.0 3211.0 403.0C3271.0 434.0 3293.0 472.0 3293.0 542.0C3293.0 611.0 3263.0 669.0 3209.0 703.0C3165.0 731.0 3119.0 739.0 3009.0 739.0H2857.0ZM2994.0 131.0V320.0H3059.0C3154.0 320.0 3199.0 289.0 3199.0 224.0C3199.0 159.0 3158.0 131.0 3062.0 131.0ZM2994.0 454.0V605.0H3050.0C3122.0 605.0 3156.0 581.0 3156.0 530.0C3156.0 477.0 3121.0 454.0 3038.0 454.0Z M3960.0 218.0C3964.0 238.0 3965.0 250.0 3965.0 270.0C3965.0 441.0 3844.0 567.0 3679.0 567.0C3516.0 567.0 3387.0 438.0 3387.0 275.0C3387.0 113.0 3518.0 -13.0 3687.0 -13.0C3778.0 -13.0 3849.0 20.0 3907.0 87.0C3928.0 113.0 3942.0 136.0 3951.0 164.0H3806.0C3772.0 124.0 3739.0 109.0 3684.0 109.0C3605.0 109.0 3547.0 151.0 3531.0 218.0ZM3527.0 335.0C3548.0 407.0 3602.0 445.0 3681.0 445.0C3763.0 445.0 3817.0 406.0 3834.0 335.0Z M4056.0 0.0H4189.0V433.0H4269.0V554.0H4189.0V739.0H4056.0V554.0H3991.0V433.0H4056.0Z"/>
  </g>
</svg>
